<svg width="206" height="84" viewBox="0 0 206 84" fill="none" xmlns="http://www.w3.org/2000/svg">
<g filter="url(#filter0_b_1_108)">
<rect y="4" width="190" height="60" rx="30" fill="#0C111F" fill-opacity="0.5"/>
<path d="M20.666 33.718C20.666 32.494 20.948 31.396 21.512 30.424C22.088 29.452 22.862 28.696 23.834 28.156C24.818 27.604 25.892 27.328 27.056 27.328C28.388 27.328 29.57 27.658 30.602 28.318C31.646 28.966 32.402 29.89 32.87 31.09H30.404C30.08 30.43 29.63 29.938 29.054 29.614C28.478 29.29 27.812 29.128 27.056 29.128C26.228 29.128 25.49 29.314 24.842 29.686C24.194 30.058 23.684 30.592 23.312 31.288C22.952 31.984 22.772 32.794 22.772 33.718C22.772 34.642 22.952 35.452 23.312 36.148C23.684 36.844 24.194 37.384 24.842 37.768C25.49 38.14 26.228 38.326 27.056 38.326C27.812 38.326 28.478 38.164 29.054 37.84C29.63 37.516 30.08 37.024 30.404 36.364H32.87C32.402 37.564 31.646 38.488 30.602 39.136C29.57 39.784 28.388 40.108 27.056 40.108C25.88 40.108 24.806 39.838 23.834 39.298C22.862 38.746 22.088 37.984 21.512 37.012C20.948 36.04 20.666 34.942 20.666 33.718ZM39.9339 40.162C38.9979 40.162 38.1519 39.952 37.3959 39.532C36.6399 39.1 36.0459 38.5 35.6139 37.732C35.1819 36.952 34.9659 36.052 34.9659 35.032C34.9659 34.024 35.1879 33.13 35.6319 32.35C36.0759 31.57 36.6819 30.97 37.4499 30.55C38.2179 30.13 39.0759 29.92 40.0239 29.92C40.9719 29.92 41.8299 30.13 42.5979 30.55C43.3659 30.97 43.9719 31.57 44.4159 32.35C44.8599 33.13 45.0819 34.024 45.0819 35.032C45.0819 36.04 44.8539 36.934 44.3979 37.714C43.9419 38.494 43.3179 39.1 42.5259 39.532C41.7459 39.952 40.8819 40.162 39.9339 40.162ZM39.9339 38.38C40.4619 38.38 40.9539 38.254 41.4099 38.002C41.8779 37.75 42.2559 37.372 42.5439 36.868C42.8319 36.364 42.9759 35.752 42.9759 35.032C42.9759 34.312 42.8379 33.706 42.5619 33.214C42.2859 32.71 41.9199 32.332 41.4639 32.08C41.0079 31.828 40.5159 31.702 39.9879 31.702C39.4599 31.702 38.9679 31.828 38.5119 32.08C38.0679 32.332 37.7139 32.71 37.4499 33.214C37.1859 33.706 37.0539 34.312 37.0539 35.032C37.0539 36.1 37.3239 36.928 37.8639 37.516C38.4159 38.092 39.1059 38.38 39.9339 38.38ZM52.4744 29.92C53.2544 29.92 53.9504 30.082 54.5624 30.406C55.1864 30.73 55.6724 31.21 56.0204 31.846C56.3684 32.482 56.5424 33.25 56.5424 34.15V40H54.5084V34.456C54.5084 33.568 54.2864 32.89 53.8424 32.422C53.3984 31.942 52.7924 31.702 52.0244 31.702C51.2564 31.702 50.6444 31.942 50.1884 32.422C49.7444 32.89 49.5224 33.568 49.5224 34.456V40H47.4704V30.082H49.5224V31.216C49.8584 30.808 50.2844 30.49 50.8004 30.262C51.3284 30.034 51.8864 29.92 52.4744 29.92ZM61.9138 31.756V37.246C61.9138 37.618 61.9978 37.888 62.1658 38.056C62.3458 38.212 62.6458 38.29 63.0658 38.29H64.3258V40H62.7058C61.7818 40 61.0738 39.784 60.5818 39.352C60.0898 38.92 59.8438 38.218 59.8438 37.246V31.756H58.6738V30.082H59.8438V27.616H61.9138V30.082H64.3258V31.756H61.9138ZM65.8931 34.996C65.8931 34 66.0971 33.118 66.5051 32.35C66.9251 31.582 67.4891 30.988 68.1971 30.568C68.9171 30.136 69.7091 29.92 70.5731 29.92C71.3531 29.92 72.0311 30.076 72.6071 30.388C73.1951 30.688 73.6631 31.066 74.0111 31.522V30.082H76.0811V40H74.0111V38.524C73.6631 38.992 73.1891 39.382 72.5891 39.694C71.9891 40.006 71.3051 40.162 70.5371 40.162C69.6851 40.162 68.9051 39.946 68.1971 39.514C67.4891 39.07 66.9251 38.458 66.5051 37.678C66.0971 36.886 65.8931 35.992 65.8931 34.996ZM74.0111 35.032C74.0111 34.348 73.8671 33.754 73.5791 33.25C73.3031 32.746 72.9371 32.362 72.4811 32.098C72.0251 31.834 71.5331 31.702 71.0051 31.702C70.4771 31.702 69.9851 31.834 69.5291 32.098C69.0731 32.35 68.7011 32.728 68.4131 33.232C68.1371 33.724 67.9991 34.312 67.9991 34.996C67.9991 35.68 68.1371 36.28 68.4131 36.796C68.7011 37.312 69.0731 37.708 69.5291 37.984C69.9971 38.248 70.4891 38.38 71.0051 38.38C71.5331 38.38 72.0251 38.248 72.4811 37.984C72.9371 37.72 73.3031 37.336 73.5791 36.832C73.8671 36.316 74.0111 35.716 74.0111 35.032ZM78.4523 35.032C78.4523 34.012 78.6563 33.118 79.0643 32.35C79.4843 31.57 80.0603 30.97 80.7923 30.55C81.5243 30.13 82.3643 29.92 83.3123 29.92C84.5123 29.92 85.5023 30.208 86.2823 30.784C87.0743 31.348 87.6083 32.158 87.8843 33.214H85.6703C85.4903 32.722 85.2023 32.338 84.8063 32.062C84.4103 31.786 83.9123 31.648 83.3123 31.648C82.4723 31.648 81.8003 31.948 81.2963 32.548C80.8043 33.136 80.5583 33.964 80.5583 35.032C80.5583 36.1 80.8043 36.934 81.2963 37.534C81.8003 38.134 82.4723 38.434 83.3123 38.434C84.5003 38.434 85.2863 37.912 85.6703 36.868H87.8843C87.5963 37.876 87.0563 38.68 86.2643 39.28C85.4723 39.868 84.4883 40.162 83.3123 40.162C82.3643 40.162 81.5243 39.952 80.7923 39.532C80.0603 39.1 79.4843 38.5 79.0643 37.732C78.6563 36.952 78.4523 36.052 78.4523 35.032ZM92.6833 31.756V37.246C92.6833 37.618 92.7673 37.888 92.9353 38.056C93.1153 38.212 93.4153 38.29 93.8353 38.29H95.0953V40H93.4753C92.5513 40 91.8433 39.784 91.3513 39.352C90.8593 38.92 90.6133 38.218 90.6133 37.246V31.756H89.4433V30.082H90.6133V27.616H92.6833V30.082H95.0953V31.756H92.6833ZM104.416 27.49V35.464C104.416 36.412 104.662 37.126 105.154 37.606C105.658 38.086 106.354 38.326 107.242 38.326C108.142 38.326 108.838 38.086 109.33 37.606C109.834 37.126 110.086 36.412 110.086 35.464V27.49H112.138V35.428C112.138 36.448 111.916 37.312 111.472 38.02C111.028 38.728 110.434 39.256 109.69 39.604C108.946 39.952 108.124 40.126 107.224 40.126C106.324 40.126 105.502 39.952 104.758 39.604C104.026 39.256 103.444 38.728 103.012 38.02C102.58 37.312 102.364 36.448 102.364 35.428V27.49H104.416ZM118.77 40.162C117.99 40.162 117.288 40.024 116.664 39.748C116.052 39.46 115.566 39.076 115.206 38.596C114.846 38.104 114.654 37.558 114.63 36.958H116.754C116.79 37.378 116.988 37.732 117.348 38.02C117.72 38.296 118.182 38.434 118.734 38.434C119.31 38.434 119.754 38.326 120.066 38.11C120.39 37.882 120.552 37.594 120.552 37.246C120.552 36.874 120.372 36.598 120.012 36.418C119.664 36.238 119.106 36.04 118.338 35.824C117.594 35.62 116.988 35.422 116.52 35.23C116.052 35.038 115.644 34.744 115.296 34.348C114.96 33.952 114.792 33.43 114.792 32.782C114.792 32.254 114.948 31.774 115.26 31.342C115.572 30.898 116.016 30.55 116.592 30.298C117.18 30.046 117.852 29.92 118.608 29.92C119.736 29.92 120.642 30.208 121.326 30.784C122.022 31.348 122.394 32.122 122.442 33.106H120.39C120.354 32.662 120.174 32.308 119.85 32.044C119.526 31.78 119.088 31.648 118.536 31.648C117.996 31.648 117.582 31.75 117.294 31.954C117.006 32.158 116.862 32.428 116.862 32.764C116.862 33.028 116.958 33.25 117.15 33.43C117.342 33.61 117.576 33.754 117.852 33.862C118.128 33.958 118.536 34.084 119.076 34.24C119.796 34.432 120.384 34.63 120.84 34.834C121.308 35.026 121.71 35.314 122.046 35.698C122.382 36.082 122.556 36.592 122.568 37.228C122.568 37.792 122.412 38.296 122.1 38.74C121.788 39.184 121.344 39.532 120.768 39.784C120.204 40.036 119.538 40.162 118.77 40.162Z" fill="white"/>
<g filter="url(#filter1_di_1_108)">
<rect x="138" y="12" width="44" height="44" rx="22" fill="white" shape-rendering="crispEdges"/>
<path d="M168.16 28.84C165.28 24.4 159.4 23.08 154.84 25.84C150.4 28.6 148.96 34.6 151.84 39.04L152.08 39.4L151.12 43L154.72 42.04L155.08 42.28C156.64 43.12 158.32 43.6 160 43.6C161.8 43.6 163.6 43.12 165.16 42.16C169.6 39.28 170.92 33.4 168.16 28.84V28.84ZM165.64 38.08C165.16 38.8 164.56 39.28 163.72 39.4C163.24 39.4 162.64 39.64 160.24 38.68C158.2 37.72 156.52 36.16 155.32 34.36C154.6 33.52 154.24 32.44 154.12 31.36C154.12 30.4 154.48 29.56 155.08 28.96C155.32 28.72 155.56 28.6 155.8 28.6H156.4C156.64 28.6 156.88 28.6 157 29.08C157.24 29.68 157.84 31.12 157.84 31.24C157.96 31.36 157.96 31.6 157.84 31.72C157.96 31.96 157.84 32.2 157.72 32.32C157.6 32.44 157.48 32.68 157.36 32.8C157.12 32.92 157 33.16 157.12 33.4C157.6 34.12 158.2 34.84 158.8 35.44C159.52 36.04 160.24 36.52 161.08 36.88C161.32 37 161.56 37 161.68 36.76C161.8 36.52 162.4 35.92 162.64 35.68C162.88 35.44 163 35.44 163.24 35.56L165.16 36.52C165.4 36.64 165.64 36.76 165.76 36.88C165.88 37.24 165.88 37.72 165.64 38.08V38.08Z" fill="#55CF2A"/>
</g>
</g>
<defs>
<filter id="filter0_b_1_108" x="-8" y="-4" width="206" height="76" filterUnits="userSpaceOnUse" color-interpolation-filters="sRGB">
<feFlood flood-opacity="0" result="BackgroundImageFix"/>
<feGaussianBlur in="BackgroundImage" stdDeviation="4"/>
<feComposite in2="SourceAlpha" operator="in" result="effect1_backgroundBlur_1_108"/>
<feBlend mode="normal" in="SourceGraphic" in2="effect1_backgroundBlur_1_108" result="shape"/>
</filter>
<filter id="filter1_di_1_108" x="122" y="0" width="84" height="84" filterUnits="userSpaceOnUse" color-interpolation-filters="sRGB">
<feFlood flood-opacity="0" result="BackgroundImageFix"/>
<feColorMatrix in="SourceAlpha" type="matrix" values="0 0 0 0 0 0 0 0 0 0 0 0 0 0 0 0 0 0 127 0" result="hardAlpha"/>
<feOffset dx="4" dy="8"/>
<feGaussianBlur stdDeviation="10"/>
<feComposite in2="hardAlpha" operator="out"/>
<feColorMatrix type="matrix" values="0 0 0 0 0 0 0 0 0 0 0 0 0 0 0 0 0 0 0.15 0"/>
<feBlend mode="normal" in2="BackgroundImageFix" result="effect1_dropShadow_1_108"/>
<feBlend mode="normal" in="SourceGraphic" in2="effect1_dropShadow_1_108" result="shape"/>
<feColorMatrix in="SourceAlpha" type="matrix" values="0 0 0 0 0 0 0 0 0 0 0 0 0 0 0 0 0 0 127 0" result="hardAlpha"/>
<feOffset dx="7"/>
<feGaussianBlur stdDeviation="10"/>
<feComposite in2="hardAlpha" operator="arithmetic" k2="-1" k3="1"/>
<feColorMatrix type="matrix" values="0 0 0 0 1 0 0 0 0 1 0 0 0 0 1 0 0 0 0.15 0"/>
<feBlend mode="normal" in2="shape" result="effect2_innerShadow_1_108"/>
</filter>
</defs>
</svg>
